<?xml version="1.0" encoding="UTF-8"?><svg id="Layer_2" xmlns="http://www.w3.org/2000/svg" xmlns:xlink="http://www.w3.org/1999/xlink" viewBox="0 0 550.894 81.292"><defs><style>.cls-1{fill:none;}.cls-2{fill:url(#linear-gradient);}.cls-3{clip-path:url(#clippath-1);}.cls-4{clip-path:url(#clippath-3);}.cls-5{clip-path:url(#clippath-4);}.cls-6{clip-path:url(#clippath-2);}.cls-7{clip-path:url(#clippath-7);}.cls-8{clip-path:url(#clippath-6);}.cls-9{clip-path:url(#clippath-9);}.cls-10{clip-path:url(#clippath-8);}.cls-11{clip-path:url(#clippath-5);}.cls-12{clip-path:url(#clippath);}</style><clipPath id="clippath"><path class="cls-1" d="M0,79.749V.949h16.496v64.44h39.044v14.359H0Z"/></clipPath><linearGradient id="linear-gradient" x1="-22.813" y1="40.646" x2="578.597" y2="40.646" gradientUnits="userSpaceOnUse"><stop offset="0" stop-color="#9fa4e7"/><stop offset="1" stop-color="#3e41f9"/></linearGradient><clipPath id="clippath-1"><path class="cls-1" d="M96.363,79.749c-.475-1.502-.792-3.243-.949-5.222-1.821,2.058-4.233,3.699-7.239,4.925-3.008,1.226-6.488,1.84-10.443,1.84-6.726,0-11.65-1.483-14.775-4.451-3.126-2.967-4.688-6.824-4.688-11.571,0-4.192.671-7.536,2.017-10.028,1.345-2.492,3.205-4.45,5.578-5.875,2.374-1.424,5.202-2.472,8.485-3.145,3.282-.671,6.863-1.285,10.74-1.84,3.875-.552,6.486-1.285,7.833-2.195,1.344-.909,2.018-2.392,2.018-4.45,0-1.899-.89-3.382-2.67-4.45-1.78-1.068-4.174-1.602-7.18-1.602-3.561,0-6.112.792-7.655,2.374-1.542,1.583-2.512,3.679-2.907,6.29h-14.36c.078-3.006.573-5.774,1.483-8.307.909-2.531,2.374-4.707,4.391-6.527,2.018-1.819,4.647-3.223,7.892-4.213,3.243-.988,7.198-1.483,11.867-1.483,4.587,0,8.485.516,11.689,1.543,3.204,1.029,5.774,2.512,7.714,4.45,1.938,1.939,3.341,4.352,4.213,7.239.87,2.889,1.306,6.152,1.306,9.791v36.908h-14.36ZM95.295,51.148c-.792.792-1.94,1.424-3.442,1.899-1.503.475-3.679.99-6.527,1.542-4.432.872-7.477,1.979-9.138,3.323-1.661,1.346-2.492,3.284-2.492,5.815,0,4.352,2.492,6.527,7.477,6.527,1.977,0,3.816-.335,5.519-1.009,1.7-.671,3.164-1.582,4.391-2.729,1.226-1.146,2.214-2.492,2.967-4.035.751-1.543,1.127-3.184,1.127-4.925l.119-6.409Z"/></clipPath><clipPath id="clippath-2"><path class="cls-1" d="M154.868,79.749v-35.365c0-4.509-.752-7.554-2.254-9.138-1.504-1.582-4.076-2.374-7.714-2.374-7.992,0-11.986,4.471-11.986,13.41v33.466h-15.428V21.361h14.716v8.544c1.819-3.323,4.231-5.833,7.239-7.536,3.005-1.701,6.883-2.552,11.63-2.552,2.769,0,5.34.416,7.714,1.246s4.41,2.077,6.112,3.738c1.7,1.662,3.044,3.699,4.035,6.112.988,2.414,1.483,5.203,1.483,8.367v40.468h-15.546Z"/></clipPath><clipPath id="clippath-3"><path class="cls-1" d="M213.729,79.749c-.475-1.502-.792-3.243-.949-5.222-1.821,2.058-4.233,3.699-7.239,4.925-3.008,1.226-6.488,1.84-10.443,1.84-6.726,0-11.65-1.483-14.775-4.451-3.126-2.967-4.688-6.824-4.688-11.571,0-4.192.671-7.536,2.017-10.028,1.345-2.492,3.205-4.45,5.578-5.875,2.374-1.424,5.202-2.472,8.485-3.145,3.282-.671,6.863-1.285,10.74-1.84,3.875-.552,6.486-1.285,7.833-2.195,1.344-.909,2.018-2.392,2.018-4.45,0-1.899-.89-3.382-2.67-4.45-1.78-1.068-4.174-1.602-7.18-1.602-3.561,0-6.112.792-7.655,2.374-1.542,1.583-2.512,3.679-2.907,6.29h-14.36c.078-3.006.573-5.774,1.483-8.307.909-2.531,2.374-4.707,4.391-6.527,2.018-1.819,4.647-3.223,7.892-4.213,3.243-.988,7.198-1.483,11.867-1.483,4.587,0,8.485.516,11.689,1.543,3.204,1.029,5.774,2.512,7.714,4.45,1.938,1.939,3.341,4.352,4.213,7.239.87,2.889,1.306,6.152,1.306,9.791v36.908h-14.36ZM212.662,51.148c-.792.792-1.94,1.424-3.442,1.899-1.503.475-3.679.99-6.527,1.542-4.432.872-7.477,1.979-9.138,3.323-1.661,1.346-2.492,3.284-2.492,5.815,0,4.352,2.492,6.527,7.477,6.527,1.977,0,3.816-.335,5.519-1.009,1.7-.671,3.164-1.582,4.391-2.729,1.226-1.146,2.214-2.492,2.967-4.035.751-1.543,1.127-3.184,1.127-4.925l.119-6.409Z"/></clipPath><clipPath id="clippath-4"><path class="cls-1" d="M284.577,79.749V14.715h-23.735V.949h64.084v13.766h-23.854v65.034h-16.496Z"/></clipPath><clipPath id="clippath-5"><path class="cls-1" d="M356.611,79.749c-.475-1.502-.792-3.243-.949-5.222-1.821,2.058-4.233,3.699-7.239,4.925-3.008,1.226-6.488,1.84-10.443,1.84-6.726,0-11.65-1.483-14.775-4.451-3.126-2.967-4.688-6.824-4.688-11.571,0-4.192.671-7.536,2.017-10.028,1.345-2.492,3.205-4.45,5.578-5.875,2.374-1.424,5.202-2.472,8.485-3.145,3.282-.671,6.863-1.285,10.74-1.84,3.875-.552,6.486-1.285,7.833-2.195,1.344-.909,2.018-2.392,2.018-4.45,0-1.899-.89-3.382-2.67-4.45-1.78-1.068-4.174-1.602-7.18-1.602-3.561,0-6.112.792-7.655,2.374-1.542,1.583-2.512,3.679-2.907,6.29h-14.36c.078-3.006.573-5.774,1.483-8.307.909-2.531,2.374-4.707,4.391-6.527,2.018-1.819,4.647-3.223,7.892-4.213,3.243-.988,7.198-1.483,11.867-1.483,4.587,0,8.485.516,11.689,1.543,3.204,1.029,5.774,2.512,7.713,4.45,1.938,1.939,3.342,4.352,4.213,7.239.871,2.889,1.307,6.152,1.307,9.791v36.908h-14.36ZM355.543,51.148c-.792.792-1.94,1.424-3.442,1.899-1.503.475-3.679.99-6.527,1.542-4.432.872-7.477,1.979-9.138,3.323-1.661,1.346-2.492,3.284-2.492,5.815,0,4.352,2.492,6.527,7.477,6.527,1.977,0,3.816-.335,5.519-1.009,1.7-.671,3.164-1.582,4.391-2.729,1.226-1.146,2.214-2.492,2.967-4.035.751-1.543,1.127-3.184,1.127-4.925l.119-6.409Z"/></clipPath><clipPath id="clippath-6"><path class="cls-1" d="M377.735,79.749V0h15.428v79.749h-15.428Z"/></clipPath><clipPath id="clippath-7"><path class="cls-1" d="M413.812,54.59c.237,4.432,1.522,7.951,3.856,10.562,2.333,2.611,5.4,3.917,9.197,3.917,2.531,0,4.766-.573,6.705-1.721,1.938-1.146,3.185-2.748,3.738-4.807h15.902c-1.82,6.014-4.984,10.642-9.493,13.885-4.51,3.245-9.892,4.866-16.141,4.866-19.462,0-29.193-10.601-29.193-31.805,0-4.509.632-8.583,1.898-12.223,1.265-3.638,3.104-6.765,5.519-9.375,2.412-2.611,5.359-4.608,8.841-5.993,3.48-1.383,7.477-2.077,11.986-2.077,9.02,0,15.844,2.889,20.472,8.663,4.628,5.776,6.942,14.479,6.942,26.108h-40.23ZM438.14,44.859c-.08-2.136-.456-4.015-1.128-5.637-.673-1.621-1.562-2.967-2.67-4.035-1.108-1.068-2.373-1.858-3.798-2.373-1.424-.514-2.889-.771-4.391-.771-3.085,0-5.756,1.127-8.011,3.382-2.255,2.254-3.541,5.399-3.856,9.435h23.854Z"/></clipPath><clipPath id="clippath-8"><path class="cls-1" d="M496.764,79.749v-35.365c0-4.509-.753-7.554-2.255-9.138-1.504-1.582-4.075-2.374-7.714-2.374-7.991,0-11.985,4.471-11.985,13.41v33.466h-15.428V21.361h14.715v8.544c1.819-3.323,4.231-5.833,7.239-7.536,3.006-1.701,6.884-2.552,11.631-2.552,2.768,0,5.34.416,7.713,1.246,2.374.831,4.41,2.077,6.112,3.738,1.7,1.662,3.045,3.699,4.035,6.112.988,2.414,1.483,5.203,1.483,8.367v40.468h-15.547Z"/></clipPath><clipPath id="clippath-9"><path class="cls-1" d="M541.867,30.159h9.027v-10.341h-9.027V5.578h-15.189v14.241h-9.027v10.341h9.027v27.635c0,3.165.434,6.171,1.305,9.019.87,2.848,2.273,5.34,4.213,7.477,1.938,2.136,4.41,3.838,7.418,5.103,3.006,1.265,7.008,1.899,11.281,1.899l-.126-13.411c-3.166,0-5.44-1.008-6.824-3.026-1.385-2.018-2.077-4.884-2.077-8.604v-26.092Z"/></clipPath></defs><g id="Layer_1-2"><g class="cls-12"><rect class="cls-2" x="-22.813" y="-17.589" width="601.411" height="116.47"/></g><g class="cls-3"><rect class="cls-2" x="-22.813" y="-17.589" width="601.411" height="116.47"/></g><g class="cls-6"><rect class="cls-2" x="-22.813" y="-17.589" width="601.411" height="116.47"/></g><g class="cls-4"><rect class="cls-2" x="-22.813" y="-17.589" width="601.411" height="116.47"/></g><g class="cls-5"><rect class="cls-2" x="-22.813" y="-17.589" width="601.411" height="116.47"/></g><g class="cls-11"><rect class="cls-2" x="-22.813" y="-17.589" width="601.411" height="116.47"/></g><g class="cls-8"><rect class="cls-2" x="-22.813" y="-17.589" width="601.411" height="116.47"/></g><g class="cls-7"><rect class="cls-2" x="-22.813" y="-17.589" width="601.411" height="116.47"/></g><g class="cls-10"><rect class="cls-2" x="-22.813" y="-17.589" width="601.411" height="116.47"/></g><g class="cls-9"><rect class="cls-2" x="-22.813" y="-17.589" width="601.411" height="116.47"/></g></g></svg>