<?xml version="1.0" encoding="UTF-8"?>
<svg id="Layer_2" xmlns="http://www.w3.org/2000/svg" viewBox="0 0 152.72 43.69">
  <defs>
    <style>
      .cls-1 {
        fill: #fff;
      }
    </style>
  </defs>
  <g id="Layer_1-2" data-name="Layer_1">
    <g>
      <path class="cls-1" d="M15.54,43.24v-14.2c.06-4.58-2.99-6.18-7.2-6.18s-7.58,1.78-7.58,6.3h4.52c0-1.97,1.08-3.06,3.06-3.06,2.29,0,2.8,1.66,2.8,3.63v1.97c-4.52.13-11.08.76-11.14,6.75.06,3.38,2.74,5.22,5.86,5.22,2.23,0,4.2-.76,5.16-2.74h.13v2.29h4.39ZM11.14,34.45c0,2.55-1.02,5.92-4.14,5.99-1.53-.06-2.48-.83-2.48-2.42,0-2.99,4.39-3.57,6.62-3.57h0Z"/>
      <path class="cls-1" d="M29.3,30.12c0-2.04-.57-4.01-2.99-4.01-2.93,0-3.76,3.06-3.82,5.48.06,4.97,2.93,8.79,8.22,8.85,1.15-.06,2.23-.19,3.31-.51v2.8c-1.85.57-3.82.96-5.8.96-7.07,0-10.64-4.39-10.64-11.27,0-5.8,3.12-9.55,9.11-9.55,4.84,0,7.58,2.36,7.58,7.26h-4.97Z"/>
      <path class="cls-1" d="M47.13,30.12c0-2.04-.57-4.01-2.99-4.01-2.93,0-3.82,3.06-3.82,5.48,0,4.97,2.93,8.79,8.15,8.85,1.15-.06,2.29-.19,3.38-.51v2.8c-1.85.57-3.82.96-5.79.96-7.07,0-10.64-4.39-10.64-11.27,0-5.8,3.12-9.55,9.11-9.55,4.84,0,7.51,2.36,7.51,7.26h-4.9Z"/>
      <path class="cls-1" d="M69.67,32.1v-1.15c0-4.9-2.48-8.09-7.58-8.09-5.92,0-8.47,3.69-8.53,9.36.06,6.56,2.99,11.46,10.06,11.46,1.91,0,3.76-.25,5.54-.83v-3.18c-1.15.38-2.55.7-3.82.76-4.46-.06-7.45-4.14-7.45-8.34h11.78ZM65.28,29.3h-7.26c.25-2.04,1.78-3.44,3.76-3.44,2.16,0,3.5,1.27,3.5,3.44h0Z"/>
      <path class="cls-1" d="M83.43,43.24v-11.4c0-.96.06-3.5-.7-4.27-.32-.32-.89-.38-1.34-.38-3.38,0-4.71,4.71-4.71,7.45v8.6h-4.65v-19.93h4.65v3.76h.06c1.08-2.55,3.12-4.2,5.92-4.2,3.82,0,5.41,3.12,5.41,6.56v13.82h-4.65Z"/>
      <path class="cls-1" d="M97.69,26.56v9.43c0,2.29.25,4.39,3.12,4.46.76-.06,1.46-.19,2.17-.38v3.31c-1.27.19-2.55.32-3.82.32-4.01,0-6.05-1.34-6.11-5.48v-11.65h-3.88v-3.25h3.88v-4.71l4.65-1.85v6.56h5.92v3.25h-5.92Z"/>
      <path class="cls-1" d="M116.99,43.24v-3.76h-.06c-1.02,2.48-3.06,4.2-5.92,4.2-3.76,0-5.35-3.18-5.35-6.56v-13.82h4.65v11.4c0,.96-.06,3.5.7,4.27.32.32.89.32,1.34.38,3.31-.06,4.65-4.78,4.65-7.39v-8.66h4.65v19.93h-4.65Z"/>
      <path class="cls-1" d="M129.22,34.52v8.72h-4.65v-19.93h4.65v3.69h.06c1.59-2.74,3.12-4.14,6.43-4.14v4.84c-4.71,0-6.5,2.1-6.5,6.81h0Z"/>
      <path class="cls-1" d="M152.72,32.1v-1.15c0-4.9-2.48-8.09-7.51-8.09-5.92,0-8.53,3.69-8.53,9.36,0,6.56,2.99,11.46,10,11.46,1.91,0,3.76-.25,5.54-.83v-3.18c-1.14.38-2.48.7-3.76.76-4.52-.06-7.45-4.14-7.51-8.34h11.78ZM148.32,29.3h-7.26c.25-2.04,1.78-3.44,3.76-3.44,2.16,0,3.57,1.27,3.5,3.44h0Z"/>
      <path class="cls-1" d="M89.16,0v3.25s9.3,3.57,10.64,4.14c-1.34.51-10.64,4.08-10.64,4.08v3.25l14.46-5.86v-2.99l-14.46-5.86h0Z"/>
    </g>
  </g>
</svg>