<?xml version="1.0" encoding="UTF-8"?>
<svg id="Layer_2" xmlns="http://www.w3.org/2000/svg" viewBox="0 0 200 55.71">
  <defs>
    <style>
      .cls-1 {
        fill: none;
      }

      .cls-2 {
        isolation: isolate;
        opacity: .3;
      }

      .cls-3 {
        fill: #fff;
      }
    </style>
  </defs>
  <g id="Layer_1-2" data-name="Layer_1">
    <g>
      <g class="cls-2">
        <path class="cls-3" d="M0,55.71h26.4c15.04,0,27.23-12.47,27.23-27.85S41.44,0,26.4,0H0v55.71Z"/>
        <rect class="cls-1" y="0" width="53.63" height="55.71"/>
      </g>
      <path class="cls-3" d="M.13,0S.04,0,0,0v55.71s.08,0,.13,0c15.04,0,27.23-12.47,27.23-27.85S15.17,0,.13,0"/>
      <path class="cls-3" d="M82.35,17.15h-3.19c-.08,0-.15.07-.15.15v6c-.99-1.28-2.69-2.03-4.64-2.03-4.79,0-8.01,4.22-8.01,8.17s2.94,8.17,7.86,8.17c1.91,0,3.71-.78,4.8-2.06v1.5c0,.08.07.15.15.15h3.19c.08,0,.15-.07.15-.15v-19.73c0-.08-.07-.15-.15-.15M74.61,34.22c-2.53,0-4.58-2.15-4.58-4.78s2.06-4.78,4.58-4.78,4.52,2.19,4.52,4.78-2.07,4.78-4.52,4.78"/>
      <path class="cls-3" d="M93.42,21.27c-5.42,0-8.35,4.21-8.35,8.17s2.93,8.17,8.35,8.17c2.67-.03,5.17-1.37,7.03-3.77.03-.04.04-.08.03-.12,0-.04-.04-.08-.07-.1l-2.7-1.54c-.07-.04-.15-.02-.19.04-1.1,1.5-2.55,2.3-4.18,2.3-2.24,0-4.13-1.61-4.38-3.69h12.19c.08,0,.15-.07.15-.15v-.6c0-6-4.6-8.7-7.86-8.7M92.99,24.46c1.97,0,3.53,1.21,4.19,3.25h-8.21c.54-2.01,2.06-3.25,4.02-3.25"/>
      <path class="cls-3" d="M112,28.12l-3.23-.63c-1.24-.22-1.81-.68-1.81-1.45,0-1.15,1.33-1.76,2.59-1.76s2.62.56,3.9,1.66c.03.03.07.04.11.04.04,0,.08-.02.1-.06l1.81-2.29s.04-.07.03-.12c0-.04-.03-.08-.06-.1-2.03-1.48-3.87-2.13-5.99-2.13-3.93,0-5.99,2.57-5.99,5.12s1.53,3.75,5.47,4.49l1.81.35c1.2.23,1.81.77,1.81,1.61,0,.72-1,1.77-2.8,1.77-1.55,0-3.38-.88-4.56-2.18-.03-.03-.07-.05-.11-.05-.04,0-.08.02-.11.05l-2.18,2.26s-.04.07-.04.11c0,.04.02.08.05.11,2.1,1.82,4.32,2.71,6.79,2.71,2.07,0,3.78-.61,4.95-1.77.95-.95,1.5-2.22,1.5-3.51,0-2.31-1.33-3.68-4.05-4.2"/>
      <path class="cls-3" d="M126.69,21.27c-1.93,0-3.62.73-4.8,2.07v-1.51c0-.08-.07-.15-.15-.15h-3.2c-.08,0-.15.07-.15.15v20.46c0,.08.07.15.15.15h3.2c.08,0,.15-.07.15-.15v-6.72c.99,1.28,2.69,2.03,4.64,2.03,4.79,0,8.01-4.22,8.01-8.17s-2.94-8.17-7.86-8.17M126.29,24.65c2.53,0,4.58,2.14,4.58,4.78s-2.06,4.78-4.58,4.78-4.52-2.19-4.52-4.78c0-2.59,2.07-4.78,4.52-4.78"/>
      <path class="cls-3" d="M144.69,21.27c-5.43,0-8.35,4.21-8.35,8.17s2.93,8.17,8.35,8.17c2.67-.03,5.16-1.37,7.03-3.77.03-.04.04-.08.03-.12,0-.04-.04-.08-.07-.1l-2.7-1.54c-.07-.04-.15-.02-.19.04-1.1,1.5-2.55,2.3-4.18,2.3-2.24,0-4.13-1.61-4.38-3.69h12.19c.08,0,.15-.07.15-.15v-.6c0-6-4.6-8.7-7.86-8.7M144.26,24.46c1.97,0,3.53,1.21,4.19,3.25h-8.21c.54-2.01,2.06-3.25,4.02-3.25"/>
      <path class="cls-3" d="M170.01,21.68h-3.01c-.08,0-.15.07-.15.15v1.44c-1.09-1.31-2.66-2-4.55-2-3.85,0-7.74,2.75-7.74,8.01s3.71,7.91,7.37,7.91c2,0,3.53-.66,4.92-2.12v.62c0,2.98-2.47,4.34-4.77,4.34-1.38,0-2.75-.92-3.38-1.82-.02-.03-.06-.06-.1-.06-.04,0-.08,0-.11.03l-2.61,1.95s-.05.06-.06.1c0,.04,0,.08.03.12,1.52,1.92,3.91,3.07,6.38,3.07,2.09,0,4.04-.75,5.5-2.11,1.59-1.49,2.42-3.55,2.42-5.96v-13.51c0-.08-.07-.15-.15-.15M162.57,33.81c-2.51,0-4.34-1.93-4.34-4.59,0-2.52,1.95-4.56,4.34-4.56s4.27,2.06,4.27,4.59-1.84,4.56-4.27,4.56"/>
      <path class="cls-3" d="M188.27,21.68h-3.2c-.08,0-.15.07-.15.15v1.47c-.99-1.28-2.69-2.03-4.64-2.03-4.79,0-8.01,4.22-8.01,8.17s2.94,8.17,7.86,8.17c1.91,0,3.71-.78,4.8-2.06v1.5c0,.08.07.15.15.15h3.2c.08,0,.15-.07.15-.15v-15.21c0-.08-.07-.15-.15-.15M180.53,34.22c-2.53,0-4.58-2.15-4.58-4.78s2.06-4.78,4.58-4.78,4.52,2.19,4.52,4.78-2.07,4.78-4.52,4.78"/>
      <path class="cls-3" d="M199.93,21.76c-.49-.32-1.14-.5-1.83-.5-1.17,0-2.22.64-2.83,1.71v-1.15c0-.08-.07-.15-.15-.15h-3.01c-.08,0-.15.07-.15.15v15.21c0,.08.07.15.15.15h3.2c.08,0,.15-.07.15-.15v-10.06c0-1.39,1.06-2.14,2.06-2.14.28,0,.83.18,1.1.41.04.03.09.04.13.03.05-.01.08-.05.1-.1l1.14-3.24c.02-.07,0-.14-.06-.18"/>
    </g>
  </g>
</svg>