<?xml version="1.0" encoding="UTF-8"?>
<svg id="Layer_2" xmlns="http://www.w3.org/2000/svg" viewBox="0 0 200 99.27">
  <defs>
    <style>
      .cls-1 {
        fill: #fff;
      }
    </style>
  </defs>
  <g id="Layer_1-2" data-name="Layer_1">
    <g>
      <path class="cls-1" d="M45.38,93.3h-6.12l4.79-21.01,6.67-2.3-5.34,23.3Z"/>
      <path class="cls-1" d="M32.23,81.27c-1.46,0-2.31,1.14-2.65,2.45,2.89,0,3.77-.85,3.77-1.55,0-.49-.47-.9-1.13-.9ZM28.9,87.41c-.04.18-.06.37-.06.55,0,.94.68,1.26,2.49,1.26,1.78-.04,3.55-.31,5.27-.82v4.3c-1.71.58-4.4.9-6.55.9-5.05,0-7.48-1.29-7.48-5.58s2.09-10.78,10.14-10.78c5.11,0,6.65,2.16,6.65,4.44-.01,2.94-2.72,5.45-10.45,5.72Z"/>
      <path class="cls-1" d="M56.49,76.48c-2.08,0-3.42-1.25-3.42-2.98,0-2.25,1.68-3.51,3.76-3.51s3.43,1.26,3.43,2.95c.01,2.28-1.64,3.53-3.76,3.53Z"/>
      <path class="cls-1" d="M52.2,77.76h6.29l-3.18,15.32h-6.36l2.24-10.75"/>
      <path class="cls-1" d="M76.63,77.76c-2.19,5.27-4.75,10.39-7.64,15.32h-7.8c-1.01-5.04-1.45-10.18-1.31-15.32h6.36c-.12,2.49-.1,4.99.06,7.48.03.64.1,1.26.16,1.87h.03c.29-.62.58-1.23.87-1.87,1.09-2.51,2.09-5.25,2.84-7.48h6.43Z"/>
      <path class="cls-1" d="M85.14,81.27c-1.46,0-2.31,1.14-2.66,2.45,2.89,0,3.78-.85,3.78-1.55,0-.49-.47-.9-1.12-.9ZM81.81,87.41c-.04.18-.06.37-.07.55,0,.94.69,1.26,2.5,1.26,1.78-.04,3.56-.31,5.27-.82v4.3c-1.72.58-4.4.9-6.55.9-5.05,0-7.49-1.29-7.49-5.58s2.09-10.78,10.14-10.78c5.11,0,6.65,2.16,6.65,4.44-.01,2.94-2.72,5.45-10.45,5.72Z"/>
      <path class="cls-1" d="M104.48,83.16c-.5-.11-1.02-.17-1.53-.18-1.4,0-2.53,1.32-3.03,3.74l-1.3,6.34h-6.36l3.18-15.32h4.77l.15,2.04c1.47-1.69,2.62-2.57,4.4-2.57.49-.02.98.02,1.46.12l-1.74,5.83Z"/>
      <path class="cls-1" d="M124.36,77.76c-2.81,6.84-5.3,11.83-7.8,15.28-3.62,5.05-6.8,6.23-10.08,6.23-.85,0-1.7-.16-2.49-.47l1-4.41h2.18c1.09,0,1.56-.41,2.28-1.32-1.22-4.12-1.81-9.87-1.75-15.32h6.4c-.12,2.46-.1,4.93.06,7.39.03.67.09,1.31.15,1.96h.03c.29-.62.58-1.23.87-1.9,1.06-2.43,1.99-4.92,2.77-7.45h6.37Z"/>
      <path class="cls-1" d="M148.81,93.07h-6.71l1.59-7.72h-5.68l-1.6,7.72h-6.69l4.24-20.39h6.71l-1.53,7.28h5.67l1.53-7.28h6.7l-4.23,20.39Z"/>
      <path class="cls-1" d="M162.03,81.27c-1.47,0-2.31,1.14-2.65,2.45,2.89,0,3.77-.85,3.77-1.55,0-.49-.47-.9-1.13-.9ZM158.69,87.41c-.04.18-.06.37-.06.55,0,.94.68,1.26,2.49,1.26,1.78-.04,3.56-.31,5.27-.82v4.3c-1.71.58-4.4.9-6.55.9-5.05,0-7.48-1.29-7.48-5.58s2.09-10.78,10.13-10.78c5.12,0,6.65,2.16,6.65,4.44,0,2.94-2.72,5.45-10.45,5.72Z"/>
      <path class="cls-1" d="M181.35,83.16c-.5-.11-1.01-.17-1.52-.18-1.4,0-2.53,1.32-3.03,3.74l-1.31,6.34h-6.36l3.18-15.32h4.77l.16,2.04c1.47-1.69,2.6-2.57,4.39-2.57.49-.02.98.02,1.47.12l-1.75,5.83Z"/>
      <path class="cls-1" d="M191.8,81.94c-2.56,0-3.24,3.65-3.24,5.29,0,1.32.59,1.69,1.75,1.69,2.52,0,3.18-3.65,3.18-5.32,0-1.28-.56-1.67-1.68-1.67ZM189.43,93.6c-4.96,0-7.38-1.99-7.38-5.96,0-4.41,2.34-10.4,10.57-10.4,4.91,0,7.39,2.05,7.39,5.97,0,4.5-2.34,10.4-10.57,10.4Z"/>
      <path class="cls-1" d="M8.92,88.22h-1.25l2.24-10.75h1.75c2.65,0,3.62,1.47,3.62,3.47,0,4.07-2.4,7.29-6.36,7.29ZM14.86,77.85l4.24-3.81c-1.65-.93-3.92-1.36-6.75-1.36H4.25L0,93.07h8.45c9.83,0,13.74-6.43,13.74-13.12,0-1.73-.4-3.13-1.17-4.21l-6.16,2.1Z"/>
      <path class="cls-1" d="M128.83,26.45l-.05.02-8.18,3.13-.25.11-1.99,8.54c-.13.24-.43.34-.67.21-.05-.03-.09-.06-.13-.1l-5.96-6.6-.03-.02-33.62,13.52s-.06.02-.09.02c-.12,0-.22-.09-.23-.21,0-.07.04-.13.09-.17l29.07-20.39-3.68-7.87c-.18-.36.16-.74.6-.63h0l8.91,2.05,6.92-5.78h0c.22-.17.52-.13.69.09.05.06.08.13.09.2l.68,8.67,7.97,4.37c.22.12.3.39.18.61-.06.12-.18.2-.31.22ZM124.77,1.68c-10.32-3.79-21.68-.95-28.67,6.36l-27.33,27.43c-.37.37-.2.83.25.89l7.28.4c.58.03.66.51.36.83l-17.8,17.99c-.31.31.06.8.49.68l25.41-7.51c.54-.17.95.29.72.67l-3.4,5.62c-.18.32.15.76.58.73l36.63-7.64c8.75-1.3,16.57-6.77,20.04-15.06,5.24-12.44-1.29-26.49-14.57-31.38Z"/>
    </g>
  </g>
</svg>