<?xml version="1.0" encoding="UTF-8"?>
<svg id="Layer_2" xmlns="http://www.w3.org/2000/svg" viewBox="0 0 200 42.83">
  <defs>
    <style>
      .cls-1 {
        fill: #fff;
      }
    </style>
  </defs>
  <g id="Layer_1-2" data-name="Layer_1">
    <path class="cls-1" d="M62.14,26.56c.12-.26.34-.69.42-.9l5.24-12.68,5.14,12.8c.08.22.26.56.38.86l-.64.13c-1.46.39-3.08.64-4.76.64s-3.2-.22-4.84-.64c-.31-.09-.72-.21-.94-.21h0ZM9,7.24c5.82,0,9.92,1.2,12.5,3.47,3.08,2.7,4.62,6.26,4.62,10.7s-1.5,7.75-4.44,10.5c-2.58,2.44-6.78,3.73-12.68,3.73h-1.9V7.24h1.9ZM188.86,10.88c2.92,2.83,4.32,6.38,4.32,10.53s-1.44,7.62-4.32,10.54c-2.86,2.87-6.34,4.33-10.4,4.33-8.18,0-14.7-6.73-14.7-14.87,0-4.11,1.46-7.66,4.34-10.57,2.83-2.87,6.35-4.28,10.36-4.28s7.5,1.46,10.4,4.33h0ZM119.88,13.36l5.18-4.45c-4.46-5.96-10.43-8.91-17.44-8.91-11.94,0-21.58,9.55-21.58,21.5s9.6,21.33,21.28,21.33c2.96,0,5.78-.64,8.52-1.89,2.67-1.2,4.98-2.87,6.86-5.05,1.8-2.02,2.96-4.32,3.64-6.86.56-2.09.9-4.67.72-7.75l-.08-1.24h-18.68v6.55h11.48c-.3,2.57-1.62,4.8-3.94,6.64-2.52,2.05-5.4,3.04-8.6,3.04-3.71,0-7.06-1.54-10.16-4.59-2.78-2.83-4.18-6.21-4.18-10.15,0-4.16,1.44-7.75,4.44-10.75,2.84-2.87,6.26-4.24,10.2-4.24,5.06,0,9.04,2.31,12.34,6.81h0ZM75.98,33.11l3.8,9.08h7.54L69.64.56h-3.44l-18.14,41.63h7.48l3.98-9.25c.1-.25.14-.43.18-.6.18.08.41.17.72.3,2.24.86,4.9,1.33,7.5,1.33s5.1-.51,6.6-1.03c.76-.25,1.02-.39,1.24-.51.04.17.18.56.22.69h0ZM8.78,42.19c7.62,0,13.48-1.72,17.42-5.27,4.5-4.03,6.78-9.17,6.78-15.46s-2.32-11.82-6.94-15.76C22.14,2.36,16.36.68,8.86.68H0v41.5h8.78ZM38.54.68v41.5h6.82V.68h-6.82ZM138.32,22.83h14.52v-6.5h-14.52V7.24h15.82V.68h-22.62v41.5h22.67v-6.55h-15.86v-12.81h0ZM163.26,6.3c-4.24,4.16-6.34,9.25-6.34,15.16,0,11.95,9.64,21.37,21.53,21.37s21.55-9.38,21.55-21.37c0-5.87-2.15-10.88-6.3-15.12-4.2-4.24-9.28-6.34-15.24-6.34s-11,2.1-15.2,6.3"/>
  </g>
</svg>