<?xml version="1.0" encoding="UTF-8"?>
<svg id="Layer_2" xmlns="http://www.w3.org/2000/svg" viewBox="0 0 200 37.08">
  <defs>
    <style>
      .cls-1 {
        fill: #fff;
      }
    </style>
  </defs>
  <g id="Layer_1-2" data-name="Layer_1">
    <g>
      <path class="cls-1" d="M56.48,29.25c-.92.31-1.88.6-2.84.79-1.13.23-2.29.35-3.48.35-3.83,0-6.83-1.27-7.32-4.31h16.34c.12-.58.34-1.99.34-3.48,0-6.9-3.43-13.23-12.19-13.23s-13.04,6.67-13.04,14.15c0,8.62,6.02,13.55,14.44,13.55,2.14,0,3.71-.19,5-.45,1.34-.27,2.82-.72,4.07-1.27l-1.32-6.09h0ZM47.18,15.56c3.24,0,4.22,2.96,4.22,4.58h-8.73c0-2.3,1.6-4.58,4.51-4.58h0Z"/>
      <path class="cls-1" d="M183.34,29.25c-.92.31-1.88.6-2.84.79-1.13.23-2.29.35-3.48.35-3.83,0-6.83-1.27-7.32-4.31h16.34c.12-.58.34-1.99.34-3.48,0-6.9-3.43-13.23-12.19-13.23s-13.04,6.67-13.04,14.15c0,8.62,6.02,13.55,14.43,13.55,2.14,0,3.71-.19,5-.45,1.34-.27,2.82-.72,4.07-1.27l-1.32-6.09h0ZM174.04,15.56c3.24,0,4.22,2.96,4.22,4.58h-8.73c0-2.3,1.6-4.58,4.51-4.58h0Z"/>
      <polygon class="cls-1" points="63.52 .59 63.52 36.5 72.38 36.5 72.38 .59 63.52 .59 63.52 .59"/>
      <path class="cls-1" d="M90.06,37.07c6.92,0,13.91-4.35,13.91-14.08,0-5.79-3.43-13.57-13.48-13.57s-14.12,7.54-14.12,14.01c0,8.12,5.64,13.64,13.68,13.64h0ZM90.18,30.49c-2.88,0-4.77-2.85-4.77-7.25,0-3.51,1.27-7.25,4.8-7.25s4.62,3.88,4.62,7.21c0,4.42-1.84,7.28-4.65,7.28h0Z"/>
      <polygon class="cls-1" points="107.82 10 107.82 36.5 116.68 36.5 116.68 10 107.82 10 107.82 10"/>
      <polygon class="cls-1" points="107.82 .6 107.82 7.48 116.68 7.48 116.68 .6 107.82 .6 107.82 .6"/>
      <path class="cls-1" d="M123.7,2.79v7.21h-3.41v6.57h3.41v10.86c0,5.97,2.73,9.62,8.96,9.62,1.17,0,2.49-.12,3.7-.3,1.12-.17,2.12-.37,2.56-.52,0,0-.06-6.92-.06-6.95-.29.1-2.29.44-3.03.44s-1.77-.09-2.53-.86c-.54-.55-.93-1.45-.93-2.91v-9.37h5.73v-6.57h-5.73V1.81l-8.67.98h0Z"/>
      <path class="cls-1" d="M144.2,2.79v7.21h-3.4v6.57h3.4v10.86c0,5.97,2.73,9.62,8.96,9.62,1.17,0,2.49-.12,3.7-.3,1.13-.17,2.12-.37,2.56-.52,0,0-.06-6.92-.06-6.95-.29.1-2.29.44-3.03.44s-1.77-.09-2.53-.86c-.54-.55-.93-1.45-.93-2.91v-9.37h5.73v-6.57h-5.73V1.81l-8.68.98h0Z"/>
      <path class="cls-1" d="M190.2,32.17c0-2.71,2.19-4.9,4.9-4.9s4.9,2.19,4.9,4.9-2.2,4.9-4.9,4.9-4.9-2.19-4.9-4.9h0Z"/>
      <path class="cls-1" d="M12.82,29.38c-.37.03-.92.04-1.28.04h-2.81s0-22.07,0-22.07c.97-.09,2.21-.14,3.03-.14,5.15,0,10.64,3.34,10.64,11.06s-5.16,10.74-9.59,11.11h0ZM0,36.54h10.03c.68,0,1.5-.02,2.14-.05,13.72-.71,19.44-8.83,19.44-18.21C31.61,6.56,23.7,0,10.07,0,6.57,0,3.46.12,0,.41v36.13h0Z"/>
    </g>
  </g>
</svg>