<?xml version="1.0" encoding="UTF-8"?>
<svg id="Layer_2" xmlns="http://www.w3.org/2000/svg" viewBox="0 0 187.09 56.5">
  <defs>
    <style>
      .cls-1 {
        fill: #fff;
        fill-rule: evenodd;
      }
    </style>
  </defs>
  <g id="Layer_1-2" data-name="Layer_1">
    <g>
      <path class="cls-1" d="M12.18,49.62c-3.87-2.79-5.92-4.84-7.85-7.8C1.54,37.5,0,32.26,0,27.08,0,12.12,12.06,0,27.03,0s27.03,12.12,27.03,27.03c0,6.15-2.11,12.29-5.8,16.84-1.54,1.93-2.85,3.07-6.37,5.75v-15.82h2.67v10.81c1.99-2.33,2.96-3.76,3.93-5.46,1.99-3.53,3.07-7.91,3.07-12.12,0-13.66-10.98-24.75-24.52-24.75S2.5,13.37,2.5,27.2c0,6.31,2.22,11.89,6.94,17.41v-10.81h2.73v15.82h0ZM17.52,52.35c-.51-.11-1.71-.68-2.67-1.2v-17.35h2.67v18.55h0ZM22.93,53.77c-.97-.17-1.02-.17-1.36-.28-.29-.06-.4-.06-1.31-.28V16.22h2.67v37.55h0ZM28.34,54c-.4.06-.51.06-1.08.06-.85,0-1.14,0-1.59-.06V16.22h2.67v37.78h0ZM33.74,53.14c-.85.28-1.59.46-2.68.68V16.22h2.68v36.93h0ZM33.8,14.23l-6.77-5.24-6.77,5.24-1.48-1.94,8.25-6.43,8.25,6.43-1.48,1.94h0ZM39.2,51.15c-.85.4-1.37.63-2.73,1.25v-18.61h2.73v17.35h0Z"/>
      <path class="cls-1" d="M69.02,11.38v-7.23c.8-.28,1.19-.34,1.76-.34,2.05,0,3.24,1.37,3.24,3.64,0,2.67-1.14,3.93-3.59,3.93h-1.42ZM67.71,2.73h-3.47v1.2l1.93.34v16.56l-1.93.34v1.14h3.3c.57,0,1.31,0,2.28.06h1.76c1.88,0,2.9-.11,3.76-.46,1.88-.74,3.07-2.56,3.07-4.72,0-2.79-1.59-4.67-4.55-5.29,2.33-1.14,3.41-2.56,3.41-4.55,0-2.9-2.16-4.78-5.4-4.78-.23,0-.91.06-1.76.11l-2.39.06h0ZM69.02,12.75h1.25c3.3,0,4.84,1.31,4.84,4.1s-1.65,4.32-4.33,4.32c-.8,0-1.19-.11-1.76-.46v-7.97h0ZM86.32,8.08c-3.41,0-5.75,3.07-5.75,7.51,0,4.15,2.22,7,5.46,7,3.41,0,5.75-3.01,5.75-7.51,0-4.21-2.22-7-5.46-7h0ZM86.2,9.45c1.59,0,2.5,1.88,2.5,5.29,0,4.27-.91,6.43-2.62,6.43-1.59,0-2.5-2.05-2.5-5.69s.97-6.03,2.62-6.03h0ZM103.96,15.14c-.06-4.72-1.59-7-4.78-7s-5.29,2.84-5.29,7.57c0,4.44,1.93,6.88,5.35,6.88,2.22,0,3.24-.74,4.67-3.3l-1.25-.51c-.85,1.31-1.59,1.82-2.62,1.82-2.05,0-3.01-1.59-3.3-5.46h7.23ZM96.73,13.77c.34-2.96,1.02-4.27,2.33-4.27s1.88,1.19,1.99,4.27h-4.32ZM70.84,51.38v-1.2l-1.65-.34v-16.56l1.71-.34v-1.2h-6.54v1.25l1.82.28v16.61l-1.82.34v1.14h6.49ZM85.63,51.38v-1.2l-1.48-.34v-8.82c0-2.33-1.2-3.7-3.36-3.7-1.25,0-2.05.34-3.76,1.65v-1.71h-.8l-3.53.91v1.14l1.65.23v10.36l-1.65.34v1.14h5.86v-1.2l-1.48-.34v-9.27c1.08-.91,1.82-1.25,2.67-1.25,1.08,0,1.59.74,1.59,2.33v8.31l-1.48.28v1.14h5.75ZM98.95,39.2v-1.65l-2.33.06h-.51c-.23.06-.45.06-.51.06-.28,0-.68-.06-1.25-.23-1.03-.23-1.25-.28-1.82-.28-2.67,0-4.72,2.05-4.72,4.72,0,1.76.63,2.84,2.33,3.93-1.82,1.14-2.56,2.05-2.56,3.07,0,.8.46,1.31,1.59,1.76-1.65,1.08-2.22,1.82-2.22,2.96,0,1.76,1.99,2.9,5.06,2.9,4.1,0,6.77-1.93,6.77-4.95,0-2.11-1.25-3.13-3.93-3.24l-3.41-.17c-.85-.06-1.19-.23-1.19-.57s.4-.8,1.08-1.25c.51.17.97.23,1.54.23,2.73,0,4.78-1.93,4.78-4.55,0-1.08-.23-1.77-1.02-2.79h2.33ZM92.63,38.35c1.37,0,2.05,1.19,2.05,3.7,0,2.11-.63,3.19-1.93,3.19s-1.94-1.08-1.94-3.47.57-3.41,1.82-3.41h0ZM91.78,50.92c4.38.28,5.01.51,5.01,1.71,0,1.37-1.76,2.33-4.1,2.33-1.88,0-3.01-.74-3.01-1.99,0-.85.28-1.42,1.02-2.11l1.08.06h0Z"/>
      <path class="cls-1" d="M103.33,42.85c.34-3.02,1.08-4.27,2.39-4.27s1.88,1.31,1.93,4.27h-4.32ZM118.41,22.3v-1.19l-1.48-.28v-8.59c0-2.56-1.14-3.87-3.36-3.87-1.2,0-2.11.4-3.7,1.65V1.42h-.8l-3.53.74v.97l1.59.34v17.35l-1.71.34v1.14h5.8v-1.19l-1.37-.28v-9.16c1.14-.97,1.76-1.25,2.62-1.25,1.19,0,1.65.74,1.65,2.79v7.68l-1.37.28v1.14h5.63ZM124.61,8.25h-.85l-3.41.91v.91l1.65.28v10.47l-1.65.34v1.14h6.32v-1.19l-1.99-.28v-7.45c0-.8.8-1.88,1.76-2.39l1.48.8c.74-.57,1.08-1.08,1.08-1.71,0-1.02-.63-1.65-1.65-1.65s-1.59.51-2.73,2.45v-2.62h0ZM133.09,1.42c-1.03,0-1.82.8-1.82,1.82s.8,1.82,1.82,1.82,1.82-.8,1.82-1.82-.8-1.82-1.82-1.82h0ZM136.27,22.3v-1.19l-1.59-.28v-12.46h-.68l-3.58.91v.97l1.54.34v10.24l-1.54.34v1.14h5.86ZM110.61,44.15c-.11-1.88-.17-2.79-.4-3.53-.68-2.22-2.16-3.41-4.44-3.41-3.3,0-5.29,2.79-5.29,7.51,0,4.38,1.93,6.94,5.35,6.94,2.22,0,3.41-.85,4.72-3.3l-1.25-.51c-.85,1.31-1.59,1.82-2.67,1.82-2.05,0-3.02-1.59-3.3-5.52h7.28ZM118.18,51.38v-1.2l-1.54-.34v-19.4h-.74l-3.58.8v.97l1.59.17v17.52l-1.65.34v1.14h5.92ZM133.03,51.38v-1.2l-1.54-.34v-8.76c0-2.33-1.2-3.64-3.3-3.64-1.31,0-2.22.4-3.75,1.65v-8.65h-.74l-3.58.8v.97l1.59.28v17.41l-1.65.34v1.14h5.75v-1.2l-1.37-.34v-9.1c1.14-.97,1.82-1.31,2.62-1.31,1.19,0,1.65.74,1.65,2.79v7.74l-1.36.28v1.14h5.69ZM144.98,44.15c-.11-1.88-.17-2.79-.4-3.53-.68-2.22-2.16-3.41-4.44-3.41-3.3,0-5.29,2.79-5.29,7.51,0,4.38,1.93,6.94,5.35,6.94,2.22,0,3.41-.85,4.72-3.3l-1.25-.51c-.85,1.31-1.59,1.82-2.67,1.82-2.05,0-3.02-1.59-3.3-5.52h7.28ZM137.7,42.85c.34-3.02,1.08-4.27,2.39-4.27s1.88,1.31,1.94,4.27h-4.32Z"/>
      <path class="cls-1" d="M158.12,9.27c1.37,0,2.05,1.2,2.05,3.7,0,2.11-.63,3.19-1.93,3.19s-1.93-1.08-1.93-3.47.57-3.41,1.82-3.41h0ZM151.18,22.3v-1.19l-1.48-.34v-8.82c0-2.33-1.2-3.7-3.36-3.7-1.25,0-2.05.34-3.75,1.65v-1.71h-.8l-3.53.91v1.14l1.65.23v10.35l-1.65.34v1.14h5.86v-1.19l-1.48-.34v-9.27c1.08-.91,1.82-1.25,2.67-1.25,1.08,0,1.59.74,1.59,2.33v8.31l-1.48.28v1.14h5.75ZM164.44,10.13v-1.65l-2.33.06h-.51c-.23.06-.46.06-.51.06-.28,0-.68-.06-1.25-.23-1.02-.23-1.25-.28-1.82-.28-2.67,0-4.72,2.05-4.72,4.72,0,1.76.63,2.85,2.33,3.93-1.82,1.14-2.56,2.05-2.56,3.02,0,.8.46,1.36,1.59,1.82-1.59,1.02-2.22,1.82-2.22,2.96,0,1.76,1.99,2.9,5.06,2.9,4.1,0,6.77-1.93,6.77-4.95,0-2.11-1.25-3.13-3.93-3.24l-3.41-.17c-.85-.06-1.19-.23-1.19-.63,0-.28.4-.74,1.08-1.19.51.17.97.23,1.54.23,2.73,0,4.78-1.93,4.78-4.55,0-1.08-.23-1.76-1.02-2.79h2.33ZM156.19,21.79c5.63.34,6.09.46,6.09,1.76s-1.76,2.33-4.1,2.33c-1.88,0-3.02-.74-3.02-1.99,0-.85.28-1.42,1.02-2.11h0ZM176.1,15.14c-.06-4.72-1.59-7-4.78-7s-5.29,2.84-5.29,7.57c0,4.44,1.93,6.88,5.35,6.88,2.22,0,3.24-.74,4.67-3.3l-1.25-.51c-.85,1.31-1.59,1.82-2.62,1.82-2.05,0-3.02-1.59-3.3-5.46h7.23ZM168.88,13.77c.34-2.96,1.02-4.27,2.33-4.27s1.88,1.19,1.99,4.27h-4.33ZM182.71,8.25h-.85l-3.41.91v.91l1.65.28v10.47l-1.65.34v1.14h6.32v-1.19l-1.99-.28v-7.45c0-.8.8-1.88,1.76-2.39l1.48.8c.74-.57,1.08-1.08,1.08-1.71,0-1.02-.63-1.65-1.65-1.65s-1.59.51-2.73,2.45v-2.62h0ZM149.99,30.44c-1.08,0-1.93.85-1.93,1.88s.8,1.82,1.82,1.82,1.88-.85,1.88-1.88c0-.97-.8-1.82-1.76-1.82h0ZM153.06,51.38v-1.2l-1.59-.34v-12.4h-.68l-3.58.91v.91l1.54.34v10.3l-1.54.34v1.14h28.17v-1.2l-1.59-.34v-8.36c0-2.85-1.03-4.04-3.47-4.04-1.48,0-2.45.51-3.93,1.88-.8-1.25-1.76-1.82-3.19-1.82s-2.45.45-3.87,1.65v-1.88h-.74l-3.58.91v.97l1.65.28v10.47l-1.65.34v1.14h5.8v-1.2l-1.31-.34v-9.16c.97-.97,1.65-1.31,2.56-1.31,1.25,0,1.82.8,1.82,2.56v7.97l-1.59.34v1.14h5.75v-1.2l-1.42-.34v-9.1c1.14-1.02,1.77-1.37,2.67-1.37,1.19,0,1.71.74,1.71,2.62v7.91l-1.54.34v1.14h5.92-22.3Z"/>
    </g>
  </g>
</svg>